# xmcd CD database file
#
# Track frame offsets:
#	150
#	14460
#	27473
#	39849
#	53299
#	67738
#	81677
#	93475
#	110291
#	133692
#	145083
#	161855
#	177869
#	192985
#	207769
#	221644
#	235925
#	248376
#	262000
#	286265
#	303635
#	315942
#	328825
#
# Disc length: 4589 seconds
#
# Revision: 2
# Processed by: cddbd v1.5.2PL0 Copyright (c) Steve Scherf et al.
# Submitted via: CDex 1.51
#
DISCID=4211eb17
DTITLE=Various Artist - The Sound Stage 7 Story CD2: Deep Soul Survives
DYEAR=2005
DGENRE=Soul/R&B
TTITLE0=The Electrifying Cashmeres - What Does It Take (To Win Your Love)
TTITLE1=Ella Washington - Too Weak To Fight
TTITLE2=Willie Hobbs - Where Did I Go Wrong
TTITLE3=The Continental Showstoppers - Never Set Me Free
TTITLE4=Billy Mills - Sad Memories
TTITLE5=Alder Ray Black - Just Because The Package Has Been Unwrapped
TTITLE6=Jackey Beavers - Someone (Bigger Than You Or Me)
TTITLE7=Charles Smith - I'm Useless
TTITLE8=Fenton Robinson - She's A Wiggler
TTITLE9=Earl Gaines - You're The One
TTITLE10=Geater Davis - Your Heart Is So Cold
TTITLE11=Charles Smith - Why Can't I Cry
TTITLE12=Earl Gaines - Hymn # 5
TTITLE13=Geater Davis - I've Got To Pay The Price
TTITLE14=Ann Sexton - You're Gonna Miss Me
TTITLE15=Brief Encounter - (Don't You See) I'm Crazy About You
TTITLE16=The Tears Of Joy - This Is Not Your World
TTITLE17=Joe Simon - Who's Julie
TTITLE18=Willie Hobbs - How Could My Baby Know
TTITLE19=Bill Brantley - A Little Bit More
TTITLE20=Margie Hendrix - (I Got) Your Mama's Recipe
TTITLE21=Ann Sexton - I'm His Wife (You're Just A Friend)
TTITLE22=Betty Everett - Hey, Lucinda
EXTD=Teil 2 von 3 aus der Collection von "CHARLY" YEAR: 2005
EXTT0=
EXTT1=
EXTT2=
EXTT3=
EXTT4=
EXTT5=
EXTT6=
EXTT7=
EXTT8=
EXTT9=
EXTT10=
EXTT11=
EXTT12=
EXTT13=
EXTT14=
EXTT15=
EXTT16=
EXTT17=
EXTT18=
EXTT19=
EXTT20=
EXTT21=
EXTT22=
PLAYORDER=
